P3
# Created by GIMP version 2.10.32 PNM plug-in
20 20
255
255
255
255
254
254
254
254
254
254
254
254
254
254
254
254
254
254
254
254
254
254
254
254
254
255
255
255
255
255
255
255
255
255
255
255
255
255
255
255
255
255
255
255
255
255
255
255
255
255
255
255
255
255
255
255
255
255
255
255
255
239
239
239
213
213
213
196
196
196
194
194
194
195
195
195
196
196
196
197
197
197
205
205
205
219
219
219
230
230
230
237
237
237
246
246
246
252
252
252
253
253
253
253
253
253
254
254
254
254
254
254
254
254
254
254
254
254
255
255
255
182
182
182
107
107
107
71
71
71
64
64
64
66
66
66
67
67
67
69
69
69
79
79
79
94
94
94
109
109
109
120
120
120
130
130
130
139
139
139
143
143
143
147
147
147
157
157
157
162
162
162
166
166
166
185
185
185
224
224
224
115
115
115
21
21
21
2
2
2
1
1
1
1
1
1
1
1
1
1
1
1
2
2
2
4
4
4
5
5
5
6
6
6
6
6
6
8
8
8
10
10
10
13
13
13
24
24
24
29
29
29
35
35
35
62
62
62
142
142
142
115
115
115
21
21
21
2
2
2
1
1
1
1
1
1
0
0
0
0
0
0
1
1
1
0
0
0
0
0
0
0
0
0
0
0
0
0
0
0
0
0
0
0
0
0
0
0
0
0
0
0
0
0
0
4
4
4
74
74
74
182
182
182
107
107
107
70
70
70
52
52
52
22
22
22
1
1
1
1
1
1
16
16
16
30
30
30
18
18
18
1
1
1
0
0
0
0
0
0
4
4
4
8
8
8
6
6
6
6
6
6
8
8
8
26
26
26
110
110
110
239
239
239
213
213
213
196
196
196
148
148
148
52
52
52
1
1
1
1
1
1
49
49
49
129
129
129
86
86
86
3
3
3
0
0
0
2
2
2
72
72
72
129
129
129
120
120
120
113
113
113
116
116
116
143
143
143
200
200
200
255
255
255
254
254
254
253
253
253
193
193
193
64
64
64
1
1
1
1
1
1
64
64
64
192
192
192
134
134
134
7
7
7
0
0
0
6
6
6
130
130
130
243
243
243
237
237
237
231
231
231
231
231
231
237
237
237
248
248
248
255
255
255
255
255
255
254
254
254
193
193
193
63
63
63
1
1
1
2
2
2
68
68
68
196
196
196
145
145
145
12
12
12
0
0
0
7
7
7
129
129
129
246
246
246
255
255
255
255
255
255
255
255
255
255
255
255
255
255
255
255
255
255
255
255
255
254
254
254
185
185
185
52
52
52
1
1
1
2
2
2
80
80
80
205
205
205
155
155
155
22
22
22
0
0
0
4
4
4
107
107
107
232
232
232
255
255
255
255
255
255
255
255
255
255
255
255
255
255
255
255
255
255
255
255
255
252
252
252
162
162
162
30
30
30
0
0
0
5
5
5
103
103
103
225
225
225
160
160
160
24
24
24
0
0
0
1
1
1
68
68
68
207
207
207
255
255
255
255
255
255
255
255
255
255
255
255
255
255
255
255
255
255
255
255
255
244
244
244
132
132
132
11
11
11
0
0
0
11
11
11
132
132
132
242
242
242
168
168
168
31
31
31
0
0
0
0
0
0
41
41
41
181
181
181
253
253
253
255
255
255
255
255
255
255
255
255
255
255
255
255
255
255
255
255
255
229
229
229
113
113
113
7
7
7
0
0
0
34
34
34
164
164
164
251
251
251
196
196
196
60
60
60
1
1
1
0
0
0
37
37
37
173
173
173
254
254
254
255
255
255
255
255
255
255
255
255
255
255
255
255
255
255
254
254
254
223
223
223
122
122
122
20
20
20
9
9
9
81
81
81
199
199
199
254
254
254
232
232
232
123
123
123
17
17
17
0
0
0
47
47
47
181
181
181
253
253
253
255
255
255
255
255
255
255
255
255
255
255
255
255
255
255
255
255
255
238
238
238
178
178
178
97
97
97
89
89
89
166
166
166
234
234
234
255
255
255
252
252
252
205
205
205
113
113
113
64
64
64
128
128
128
219
219
219
255
255
255
255
255
255
255
255
255
255
255
255
255
255
255
255
255
255
255
255
255
252
252
252
236
236
236
210
210
210
210
210
210
236
236
236
252
252
252
255
255
255
255
255
255
249
249
249
221
221
221
198
198
198
222
222
222
249
249
249
255
255
255
255
255
255
255
255
255
255
255
255
255
255
255
255
255
255
255
255
255
255
255
255
255
255
255
254
254
254
254
254
254
255
255
255
255
255
255
255
255
255
255
255
255
255
255
255
255
255
255
253
253
253
255
255
255
255
255
255
255
255
255
255
255
255
255
255
255
255
255
255
255
255
255
255
255
255
255
255
255
255
255
255
255
255
255
255
255
255
255
255
255
255
255
255
255
255
255
255
255
255
255
255
255
255
255
255
255
255
255
255
255
255
255
255
255
255
255
255
255
255
255
255
255
255
255
255
255
255
255
255
255
255
255
255
255
255
255
255
255
255
255
255
255
255
255
255
255
255
255
255
255
255
255
255
255
255
255
255
255
255
255
255
255
255
255
255
255
255
255
255
255
255
255
255
255
255
255
255
255
255
255
255
255
255
255
255
255
255
255
255
255
255
255
255
255
255
255
255
255
255
255
255
255
255
255
255
255
255
255
255
255
255
255
255
255
255
255
255
255
255
255
255
255
255
255
255
255
255
255
255
255
255
255
255
255
255
255
255
255
255
255
255
255
255
255
255
255
255
255
255
255
255
255
